<?xml version='1.0' encoding='UTF-8' standalone='no'?>
<svg xmlns:dc="http://purl.org/dc/elements/1.1/" baseProfile="tiny" xmlns:inkscape="http://www.inkscape.org/namespaces/inkscape" width="420mm" xmlns:sodipodi="http://sodipodi.sourceforge.net/DTD/sodipodi-0.dtd" xmlns:xlink="http://www.w3.org/1999/xlink" xmlns:cc="http://creativecommons.org/ns#" xmlns:rdf="http://www.w3.org/1999/02/22-rdf-syntax-ns#" height="297mm" viewBox="0 0 4200 2970" xmlns:svg="http://www.w3.org/2000/svg" xmlns="http://www.w3.org/2000/svg" version="1.2" xmlns:freecad="http://www.freecadweb.org/wiki/index.php?title=Svg_Namespace">
 <title>FreeCAD SVG Export</title>
 <desc>Drawing page: Page exported from FreeCAD document: prancha_editavel_A3_modelo</desc>
 <defs/>
 <g inkscape:label="TechDraw" inkscape:groupmode="layer" id="Page">
  <g stroke-width="1" fill-rule="evenodd" id="DrawingContent" stroke-linecap="square" fill="none" stroke-linejoin="bevel" stroke="black">
   <g stroke-width="1" font-size="29.1042" stroke-opacity="1" stroke-linecap="square" transform="matrix(1,0,0,1,2100,1485)" font-family="MS Shell Dlg 2" fill="none" stroke-linejoin="bevel" font-style="normal" font-weight="400" stroke="#000000">
    <rect x="0" width="0" y="0" height="0"/>
   </g>
   <g fill-opacity="1" font-size="29.1042" transform="matrix(1,0,0,1,2100,1485)" font-family="MS Shell Dlg 2" fill="#ffffff" font-style="normal" font-weight="400" stroke="none">
    <path d="M2100,-1485 L2100,1485 L-2100,1485 L-2100,-1485 L2100,-1485" fill-rule="evenodd" vector-effect="non-scaling-stroke"/>
   </g>
   <g fill-opacity="1" font-size="29.1042" transform="matrix(1,0,0,1,2100,1485)" font-family="MS Shell Dlg 2" fill="#ffffff" font-style="normal" font-weight="400" stroke="none">
    <path d="M2000,1265 L2000,1385 L200,1385 L-1900,1385 L-1900,-1316.26 L2000,-1316.26 L2000,1265" fill-rule="evenodd" vector-effect="non-scaling-stroke"/>
   </g>
   <g fill-opacity="1" font-size="29.1042" transform="matrix(1,0,0,1,2100,1485)" font-family="MS Shell Dlg 2" fill="#ffffff" font-style="normal" font-weight="400" stroke="none">
    <path d="M200,1385 L-1900,1385 L-1900,-1316.26 L2000,-1316.26 L2000,1265 L200,1265 L200,1385" fill-rule="evenodd" vector-effect="non-scaling-stroke"/>
   </g>
   <g fill-opacity="1" font-size="29.1042" transform="matrix(1,0,0,1,2100,1485)" font-family="MS Shell Dlg 2" fill="#ffffff" font-style="normal" font-weight="400" stroke="none">
    <path d="M2000,1265 L2000,1385 L200,1385 L200,1265 L2000,1265" fill-rule="evenodd" vector-effect="non-scaling-stroke"/>
   </g>
   <g stroke-width="7" font-size="29.1042" stroke-opacity="1" stroke-linecap="round" transform="matrix(1,0,0,1,2100,1485)" font-family="MS Shell Dlg 2" fill="none" stroke-linejoin="bevel" font-style="normal" font-weight="400" stroke="#000000">
    <path d="M-2100,-1485 L2100,-1485" fill-rule="evenodd" vector-effect="none"/>
   </g>
   <g stroke-width="7" font-size="29.1042" stroke-opacity="1" stroke-linecap="round" transform="matrix(1,0,0,1,2100,1485)" font-family="MS Shell Dlg 2" fill="none" stroke-linejoin="bevel" font-style="normal" font-weight="400" stroke="#000000">
    <path d="M2100,-1485 L2100,1485" fill-rule="evenodd" vector-effect="none"/>
   </g>
   <g stroke-width="7" font-size="29.1042" stroke-opacity="1" stroke-linecap="round" transform="matrix(1,0,0,1,2100,1485)" font-family="MS Shell Dlg 2" fill="none" stroke-linejoin="bevel" font-style="normal" font-weight="400" stroke="#000000">
    <path d="M2100,1485 L-2100,1485" fill-rule="evenodd" vector-effect="none"/>
   </g>
   <g stroke-width="7" font-size="29.1042" stroke-opacity="1" stroke-linecap="round" transform="matrix(1,0,0,1,2100,1485)" font-family="MS Shell Dlg 2" fill="none" stroke-linejoin="bevel" font-style="normal" font-weight="400" stroke="#000000">
    <path d="M-2100,1485 L-2100,-1485" fill-rule="evenodd" vector-effect="none"/>
   </g>
   <g stroke-width="7" font-size="29.1042" stroke-opacity="1" stroke-linecap="round" transform="matrix(1,0,0,1,2100,1485)" font-family="MS Shell Dlg 2" fill="none" stroke-linejoin="bevel" font-style="normal" font-weight="400" stroke="#000000">
    <path d="M2000,1385 L200,1385" fill-rule="evenodd" vector-effect="none"/>
   </g>
   <g stroke-width="7" font-size="29.1042" stroke-opacity="1" stroke-linecap="round" transform="matrix(1,0,0,1,2100,1485)" font-family="MS Shell Dlg 2" fill="none" stroke-linejoin="bevel" font-style="normal" font-weight="400" stroke="#000000">
    <path d="M200,1385 L200,1265" fill-rule="evenodd" vector-effect="none"/>
   </g>
   <g stroke-width="7" font-size="29.1042" stroke-opacity="1" stroke-linecap="round" transform="matrix(1,0,0,1,2100,1485)" font-family="MS Shell Dlg 2" fill="none" stroke-linejoin="bevel" font-style="normal" font-weight="400" stroke="#000000">
    <path d="M200,1265 L2000,1265" fill-rule="evenodd" vector-effect="none"/>
   </g>
   <g stroke-width="7" font-size="29.1042" stroke-opacity="1" stroke-linecap="round" transform="matrix(1,0,0,1,2100,1485)" font-family="MS Shell Dlg 2" fill="none" stroke-linejoin="bevel" font-style="normal" font-weight="400" stroke="#000000">
    <path d="M2000,1265 L2000,1385" fill-rule="evenodd" vector-effect="none"/>
   </g>
   <g stroke-width="7" font-size="29.1042" stroke-opacity="1" stroke-linecap="round" transform="matrix(1,0,0,1,2100,1485)" font-family="MS Shell Dlg 2" fill="none" stroke-linejoin="bevel" font-style="normal" font-weight="400" stroke="#000000">
    <path d="M2000,1385 L-1900,1385" fill-rule="evenodd" vector-effect="none"/>
   </g>
   <g stroke-width="7" font-size="29.1042" stroke-opacity="1" stroke-linecap="round" transform="matrix(1,0,0,1,2100,1485)" font-family="MS Shell Dlg 2" fill="none" stroke-linejoin="bevel" font-style="normal" font-weight="400" stroke="#000000">
    <path d="M-1900,1385 L-1900,-1316.26" fill-rule="evenodd" vector-effect="none"/>
   </g>
   <g stroke-width="7" font-size="29.1042" stroke-opacity="1" stroke-linecap="round" transform="matrix(1,0,0,1,2100,1485)" font-family="MS Shell Dlg 2" fill="none" stroke-linejoin="bevel" font-style="normal" font-weight="400" stroke="#000000">
    <path d="M-1900,-1316.26 L2000,-1316.26" fill-rule="evenodd" vector-effect="none"/>
   </g>
   <g stroke-width="7" font-size="29.1042" stroke-opacity="1" stroke-linecap="round" transform="matrix(1,0,0,1,2100,1485)" font-family="MS Shell Dlg 2" fill="none" stroke-linejoin="bevel" font-style="normal" font-weight="400" stroke="#000000">
    <path d="M2000,-1316.26 L2000,1385" fill-rule="evenodd" vector-effect="none"/>
   </g>
  </g>
 </g>
</svg>
